<svg xmlns="http://www.w3.org/2000/svg" viewBox="0 0 400 80" fill="#002F87">
  <!-- UnitedHealthcare Logo - Blue version for light backgrounds -->
  <g>
    <!-- Shield Icon -->
    <path d="M10 10 C10 10 10 55 10 55 C10 70 30 75 40 75 C50 75 70 70 70 55 L70 10 Z" fill="none" stroke="#002F87" stroke-width="2"/>
    <path d="M18 15 C18 15 18 52 18 52 C18 62 33 67 40 67 C47 67 62 62 62 52 L62 15" fill="none" stroke="#002F87" stroke-width="2"/>
    <path d="M26 20 C26 20 26 49 26 49 C26 56 36 60 40 60 C44 60 54 56 54 49 L54 20" fill="none" stroke="#002F87" stroke-width="2"/>
    <path d="M34 25 C34 25 34 46 34 46 C34 50 38 52 40 52 C42 52 46 50 46 46 L46 25" fill="none" stroke="#002F87" stroke-width="2"/>
    
    <!-- UnitedHealthcare Text -->
    <text x="85" y="52" font-family="Georgia, 'Times New Roman', serif" font-size="32" font-weight="normal" fill="#002F87">
      UnitedHealthcare
    </text>
    
    <!-- Registered trademark symbol -->
    <text x="378" y="28" font-family="Georgia, 'Times New Roman', serif" font-size="12" fill="#002F87">®</text>
  </g>
</svg>
